HIERARCHY
ROOT Hips
{
	OFFSET 0.000000 0.000000 0.000000
	CHANNELS 6 Xposition Yposition Zposition Zrotation Yrotation Xrotation 
	JOINT LHipJoint
	{
		OFFSET 0.000000 0.000000 0.000000
		CHANNELS 3 Zrotation Yrotation Xrotation
		JOINT LeftUpLeg
		{
			OFFSET 1.363060 -1.794630 0.839290
			CHANNELS 3 Zrotation Yrotation Xrotation
			JOINT LeftLeg
			{
				OFFSET 2.448110 -6.726130 0.000000
				CHANNELS 3 Zrotation Yrotation Xrotation
				JOINT LeftFoot
				{
					OFFSET 2.562200 -7.039590 0.000000
					CHANNELS 3 Zrotation Yrotation Xrotation
					JOINT LeftToeBase
					{
						OFFSET 0.157640 -0.433110 2.322550
						CHANNELS 3 Zrotation Yrotation Xrotation
						End Site
						{
							OFFSET 0.000000 0.000000 0.000000
						}
					}
				}
			}
		}
	}
	JOINT RHipJoint
	{
		OFFSET 0.000000 0.000000 0.000000
		CHANNELS 3 Zrotation Yrotation Xrotation
		JOINT RightUpLeg
		{
			OFFSET -1.305520 -1.794630 0.839290
			CHANNELS 3 Zrotation Yrotation Xrotation
			JOINT RightLeg
			{
				OFFSET -2.542530 -6.985550 0.000000
				CHANNELS 3 Zrotation Yrotation Xrotation
				JOINT RightFoot
				{
					OFFSET -2.568260 -7.056230 0.000000
					CHANNELS 3 Zrotation Yrotation Xrotation
					JOINT RightToeBase
					{
						OFFSET -0.164730 -0.452590 2.363150
						CHANNELS 3 Zrotation Yrotation Xrotation
						End Site
						{
							OFFSET 0.000000 0.000000 0.000000
						}
					}
				}
			}
		}
	}
}
MOTION
Frames: 13
Frame Time: 0.008333
-19.695587 16.180976 -0.519070 11.683095 83.756051 27.354746 -9.412145 -0.264197 3.490901 -12.207249 -5.336436 -51.075749 -1.173477 2.060229 47.455627 2.091731 7.755037 -16.228219 -1.183100 -0.000000 -8.595300 10.579424 -5.152508 0.231859 2.045175 -6.604475 3.235113 0.793236 -2.467876 30.006682 0.569649 13.040455 15.325645 4.738600 -0.000001 -84.717800
-19.516021 16.182965 -0.524232 14.860233 84.025375 30.320784 -9.315221 -0.225217 3.357691 -12.826191 -5.331843 -50.041277 -1.209808 2.006989 47.705089 2.111170 7.738355 -16.913618 -1.321799 -0.000001 -8.424900 10.923248 -5.145344 0.118398 1.344550 -7.314977 1.405095 0.473995 -2.711528 33.876479 0.332027 12.885570 17.805761 5.308800 -0.000000 -83.544500
-19.339848 16.185853 -0.529361 18.308298 84.305732 33.557262 -9.184117 -0.166199 3.224180 -13.468503 -5.309791 -48.955088 -1.255448 1.945564 47.862237 2.128209 7.684896 -17.604672 -1.458400 0.000001 -8.471800 11.291853 -5.087482 -0.004487 0.684086 -8.048335 -0.507202 0.180317 -2.926333 37.799126 0.068030 12.286195 20.042103 5.625000 0.000000 -81.402700
-19.166273 16.190272 -0.534731 21.889813 84.578751 36.927972 -9.025514 -0.080658 3.096435 -14.110491 -5.261598 -47.830893 -1.309128 1.881093 47.928724 2.143972 7.603206 -18.290031 -1.590200 -0.000000 -8.713800 11.668436 -4.978671 -0.133783 0.092650 -8.767761 -2.473770 -0.085096 -3.120248 41.726631 -0.209559 11.163867 21.896151 5.578399 -0.000000 -78.546000
-18.994731 16.196889 -0.540472 25.520368 84.830398 40.351704 -8.847362 0.033555 2.979087 -14.736286 -5.185066 -46.680677 -1.370184 1.817417 47.902325 2.158986 7.500763 -18.956870 -1.714500 0.000000 -9.117200 12.038946 -4.822433 -0.266604 -0.414568 -9.445676 -4.480448 -0.326524 -3.302413 45.621495 -0.491066 9.494149 23.246918 5.110899 -0.000000 -75.289400
-18.824818 16.206279 -0.546675 29.142515 85.048798 43.777828 -8.658038 0.174868 2.874437 -15.336384 -5.081738 -45.515727 -1.438524 1.757160 47.778356 2.173108 7.382628 -19.592119 -1.828499 0.000000 -9.638600 12.391963 -4.623785 -0.399744 -0.830717 -10.057653 -6.522892 -0.552048 -3.480406 49.450801 -0.770289 7.315990 24.003382 4.235500 0.000000 -71.908700
-18.656202 16.219122 -0.553457 32.678170 85.227027 47.131201 -8.468991 0.339484 2.785672 -15.900185 -4.950855 -44.343423 -1.514086 1.701365 47.549445 2.184839 7.247865 -20.182376 -1.928900 -0.000000 -10.227900 12.715537 -4.390966 -0.525859 -1.147535 -10.578020 -8.598113 -0.770129 -3.658322 53.179387 -1.043444 4.728406 24.115661 3.036000 0.000000 -68.570100
-18.488001 16.235895 -0.560879 36.089453 85.360026 50.380745 -8.287657 0.521436 2.712219 -16.425887 -4.796769 -43.167576 -1.597188 1.649576 47.206615 2.192867 7.095881 -20.715878 -2.013100 0.000000 -10.833200 13.003522 -4.130856 -0.640506 -1.368708 -10.990604 -10.707360 -0.986893 -3.838003 56.772149 -1.307174 1.885602 23.574448 1.653600 0.000000 -65.320599
-18.320189 16.256938 -0.569005 39.316218 85.447260 53.469380 -8.122310 0.713642 2.652787 -16.909164 -4.620423 -41.987303 -1.687929 1.600212 46.741117 2.195165 6.922062 -21.183163 -2.078100 0.000000 -11.405800 13.249920 -3.851651 -0.738426 -1.496186 -11.281692 -12.846913 -1.205076 -4.018516 60.188742 -1.557581 -1.033376 22.415124 0.253100 0.000000 -62.125900
-18.152566 16.282598 -0.577657 42.357192 85.487541 56.392766 -7.973573 0.911934 2.607011 -17.357443 -4.428638 -40.786839 -1.786601 1.549701 46.134484 2.191028 6.728055 -21.573362 -2.122800 -0.000000 -11.905700 13.456970 -3.560458 -0.814031 -1.548731 -11.448681 -15.007356 -1.423818 -4.197198 63.385186 -1.789263 -3.842139 20.712520 -1.006600 0.000000 -58.879199
-17.984517 16.312858 -0.587147 45.118547 85.488711 59.056425 -7.849635 1.107510 2.569626 -17.760178 -4.216165 -39.558523 -1.892622 1.495585 45.382659 2.178273 6.506685 -21.885112 -2.145700 0.000000 -12.304000 13.618913 -3.265280 -0.865762 -1.525771 -11.487174 -17.173137 -1.638736 -4.370056 66.317166 -1.995796 -6.385459 18.574068 -2.008400 0.000000 -55.521200
-17.815972 16.347834 -0.597339 47.601488 85.453162 61.453076 -7.747533 1.297236 2.538060 -18.123933 -3.988315 -38.274840 -2.005740 1.433572 44.465332 2.157484 6.265118 -22.112731 -2.147800 -0.000000 -12.587200 13.740830 -2.971441 -0.892189 -1.451143 -11.406580 -19.321904 -1.843198 -4.533086 68.942986 -2.168891 -8.532944 16.121491 -2.682000 0.000001 -51.934500
-17.646854 16.387252 -0.608558 49.742841 85.392246 63.513256 -7.670747 1.474588 2.506431 -18.439048 -3.740582 -36.917816 -2.124640 1.360713 43.376085 2.128267 6.004323 -22.258723 -2.130700 0.000000 -12.755800 13.820930 -2.684991 -0.895589 -1.329175 -11.215529 -21.428414 -2.028753 -4.682197 71.226048 -2.300677 -10.205482 13.487138 -3.017200 0.000001 -48.111000
